# SSTK version 0.8.0
# 2
mtllib original-2.mtl
o Group2/mesh2/mesh2-geometry#mesh2-geometry
v -0.008512 0.985149 -0.149188
v 0.029931 0.716187 -0.144927
v -0.008512 0.716187 -0.149188
v 0.029931 0.985149 -0.144927
v -0.002437 0.716187 0.147073
v -0.046747 0.985149 -0.143354
v -0.008451 0.992035 -0.146225
v -0.002437 0.985149 0.147073
v 0.065960 0.716187 -0.130861
v 0.035798 0.716187 0.141239
v -0.040880 0.716187 0.142812
v -0.046747 0.716187 -0.143354
v -0.045922 0.992035 -0.140508
v -0.040880 0.985149 0.142812
v 0.029223 0.992035 -0.142049
v 0.035798 0.985149 0.141239
v 0.065960 0.985149 -0.130861
v -0.082170 0.985149 -0.127823
v -0.080636 0.992035 -0.125288
v -0.076909 0.985149 0.128746
v -0.002498 0.992035 0.144110
v -0.040171 0.992035 0.139934
v 0.034973 0.992035 0.138393
v 0.097122 0.716187 -0.107949
v 0.071221 0.716187 0.125708
v 0.071221 0.985149 0.125708
v -0.076909 0.716187 0.128746
v -0.082170 0.716187 -0.127823
v -0.075480 0.992035 0.126150
v 0.064532 0.992035 -0.128265
v 0.069687 0.992035 0.123173
v 0.097122 0.985149 -0.107949
v -0.112366 0.985149 -0.103654
v -0.110228 0.992035 -0.101602
v -0.108071 0.985149 0.105834
v -0.106019 0.992035 0.103696
v -0.108071 0.716187 0.105834
v 0.121292 0.985149 -0.077753
v 0.101417 0.716187 0.101539
v 0.101417 0.985149 0.101539
v 0.099279 0.992035 0.099487
v -0.112366 0.716187 -0.103654
v 0.095070 0.992035 -0.105811
v 0.121292 0.716187 -0.077753
v -0.135278 0.716187 -0.072492
v -0.135278 0.985149 -0.072492
v -0.132240 0.985149 0.075638
v -0.129705 0.992035 0.074104
v 0.136823 0.985149 -0.042330
v 0.118756 0.992035 -0.076219
v 0.124329 0.985149 0.070377
v 0.124329 0.716187 0.070377
v -0.132240 0.716187 0.075638
v -0.132682 0.992035 -0.071064
v 0.136823 0.716187 -0.042330
v 0.121733 0.992035 0.068948
v -0.149343 0.716187 -0.036463
v -0.147771 0.716187 0.040215
v -0.149343 0.985149 -0.036463
v -0.147771 0.985149 0.040215
v -0.144925 0.992035 0.039390
v 0.142656 0.985149 -0.004095
v 0.133976 0.992035 -0.041505
v 0.138395 0.985149 0.034348
v 0.138395 0.716187 0.034348
v -0.146466 0.992035 -0.035755
v 0.142656 0.716187 -0.004095
v 0.135517 0.992035 0.033639
v -0.153605 0.716187 0.001980
v -0.153605 0.985149 0.001980
v -0.150642 0.992035 0.001919
v 0.139693 0.992035 -0.004034
vn -0.02049999698547567 0 -0.999789852980913
vn 0.2389629242236739 0 -0.9710286920819954
vn 0.02049999698547567 0 0.999789852980913
vn -0.2389629242236739 0 0.9710286920819954
vn 0 -1 0
vn 0 1 0
vn -0.27856602364398864 0 -0.9604170815178042
vn 0.27856602364398864 0 0.9604170815178042
vn -0.01882999316000623 0.39530785640444754 -0.9183556664073648
vn 0.21949901779763958 0.39530803205276266 -0.8919370723209364
vn 0.01882999316000623 -0.39530785640444754 0.9183556664073648
vn -0.21949901779763958 -0.39530803205276266 0.8919370723209364
vn 0.48214126794285195 0 -0.8760934868759491
vn -0.48214126794285195 0 0.8760934868759491
vn -0.25587691682811725 0.395307871506581 -0.8821897132473678
vn 0.25587691682811725 -0.395307871506581 0.8821897132473678
vn -0.5176490339448365 0 -0.8555930561055164
vn 0.5176490339448365 0 0.8555930561055164
vn -0.47548511951201106 0.3953080993597151 -0.78590419753508
vn 0.47548511951201106 -0.3953080993597151 0.78590419753508
vn 0.4428702075910298 0.3953081852968024 -0.8047343772112803
vn -0.4428702075910298 -0.3953081852968024 0.8047343772112803
vn 0.25587691682811725 0.39530787150658053 0.8821897132473681
vn 0.01882999316000623 0.3953078564044471 0.918355666407365
vn -0.25587691682811725 -0.39530787150658053 -0.8821897132473681
vn -0.01882999316000623 -0.3953078564044471 -0.918355666407365
vn -0.21949901779763958 0.3953080320527622 0.8919370723209367
vn 0.21949901779763958 -0.3953080320527622 -0.8919370723209367
vn 0.6924621746528317 0 -0.7214541819651966
vn -0.6924621746528317 0 0.7214541819651966
vn -0.4428702075910298 0.39530818529680206 0.8047343772112805
vn 0.4428702075910298 -0.39530818529680206 -0.8047343772112805
vn 0.47548511951201106 0.3953080993597148 0.7859041975350802
vn -0.47548511951201106 -0.3953080993597148 -0.7859041975350802
vn -0.7214541819651966 0 -0.6924621746528317
vn 0.7214541819651966 0 0.6924621746528317
vn -0.6626909668836765 0.3953079802454726 -0.6360599682144938
vn 0.6626909668836765 -0.3953079802454726 0.6360599682144938
vn 0.6360599682144941 0.39530798024547265 -0.6626909668836765
vn -0.6360599682144941 -0.39530798024547265 0.6626909668836765
vn 0.8555930561055164 0 -0.5176490339448365
vn -0.8555930561055164 0 0.5176490339448365
vn 0.6626909668836766 0.3953079802454723 0.6360599682144942
vn -0.6626909668836766 -0.3953079802454723 -0.6360599682144942
vn -0.636059968214494 0.39530798024547226 0.6626909668836766
vn 0.636059968214494 -0.39530798024547226 -0.6626909668836766
vn 0.7859041975350801 0.39530809935971506 -0.47548511951201095
vn -0.7859041975350801 -0.39530809935971506 0.47548511951201095
vn -0.8760934868759491 0 -0.48214126794285195
vn 0.8760934868759491 0 0.48214126794285195
vn -0.8047343772112804 0.39530818529680234 -0.4428702075910297
vn 0.8047343772112804 -0.39530818529680234 0.4428702075910297
vn -0.7859041975350801 0.39530809935971484 0.47548511951201117
vn 0.7859041975350801 -0.39530809935971484 -0.47548511951201117
vn 0.9604170815178042 0 -0.27856602364398864
vn -0.9604170815178042 0 0.27856602364398864
vn 0.8047343772112804 0.3953081852968021 0.4428702075910299
vn -0.8047343772112804 -0.3953081852968021 -0.4428702075910299
vn 0.882189713247368 0.3953078715065808 -0.25587691682811714
vn -0.882189713247368 -0.3953078715065808 0.25587691682811714
vn -0.9710286920819954 0 -0.2389629242236739
vn 0.9710286920819954 0 0.2389629242236739
vn -0.8919370723209366 0.3953080320527625 -0.2194990177976395
vn 0.8919370723209366 -0.3953080320527625 0.2194990177976395
vn -0.882189713247368 0.3953078715065807 0.25587691682811736
vn 0.882189713247368 -0.3953078715065807 -0.25587691682811736
vn 0.999789852980913 0 -0.02049999698547567
vn -0.999789852980913 0 0.02049999698547567
vn 0.8919370723209366 0.3953080320527624 0.21949901779763967
vn -0.8919370723209366 -0.3953080320527624 -0.21949901779763967
vn 0.9183556664073649 0.3953078564044473 -0.018829993160006143
vn -0.9183556664073649 -0.3953078564044473 0.018829993160006143
vn -0.9183556664073649 0.3953078564044473 0.018829993160006317
vn 0.9183556664073649 -0.3953078564044473 -0.018829993160006317
usemtl material_0_0
f 1//1 2//2 3//1
f 2//2 1//1 4//2
f 3//3 2//4 1//3
f 4//4 1//3 2//4
f 2//5 5//5 3//5
f 3//6 5//6 2//6
f 3//1 6//7 1//1
f 1//3 6//8 3//3
f 7//9 4//10 1//9
f 1//11 4//12 7//11
f 8//6 4//6 1//6
f 1//5 4//5 8//5
f 4//2 9//13 2//2
f 2//4 9//14 4//4
f 2//5 10//5 5//5
f 5//6 10//6 2//6
f 3//5 5//5 11//5
f 11//6 5//6 3//6
f 6//7 3//1 12//7
f 12//8 3//3 6//8
f 13//15 1//9 6//15
f 6//16 1//11 13//16
f 14//6 1//6 6//6
f 6//5 1//5 14//5
f 4//10 7//9 15//10
f 15//12 7//11 4//12
f 1//9 13//15 7//9
f 7//11 13//16 1//11
f 16//6 4//6 8//6
f 8//5 4//5 16//5
f 8//6 1//6 14//6
f 14//5 1//5 8//5
f 9//13 4//2 17//13
f 17//14 4//4 9//14
f 9//5 10//5 2//5
f 2//6 10//6 9//6
f 16//8 5//3 10//8
f 10//7 5//1 16//7
f 8//3 11//4 5//3
f 5//1 11//2 8//1
f 3//5 11//5 12//5
f 12//6 11//6 3//6
f 12//7 18//17 6//7
f 6//8 18//18 12//8
f 6//15 19//19 13//15
f 13//16 19//20 6//16
f 14//6 6//6 20//6
f 20//5 6//5 14//5
f 21//6 15//6 7//6
f 7//5 15//5 21//5
f 15//10 17//21 4//10
f 4//12 17//22 15//12
f 22//6 7//6 13//6
f 13//5 7//5 22//5
f 16//6 17//6 4//6
f 4//5 17//5 16//5
f 5//3 16//8 8//3
f 8//1 16//7 5//1
f 23//23 8//24 16//23
f 16//25 8//26 23//25
f 11//4 8//3 14//4
f 14//2 8//1 11//2
f 21//24 14//27 8//24
f 8//26 14//28 21//26
f 17//13 24//29 9//13
f 9//14 24//30 17//14
f 9//5 25//5 10//5
f 10//6 25//6 9//6
f 10//8 26//18 16//8
f 16//7 26//17 10//7
f 12//5 11//5 27//5
f 27//6 11//6 12//6
f 18//17 12//7 28//17
f 28//18 12//8 18//18
f 19//19 6//15 18//19
f 18//20 6//16 19//20
f 20//6 6//6 18//6
f 18//5 6//5 20//5
f 29//6 13//6 19//6
f 19//5 13//5 29//5
f 27//14 14//4 20//14
f 20//13 14//2 27//13
f 22//27 20//31 14//27
f 14//28 20//32 22//28
f 23//6 15//6 21//6
f 21//5 15//5 23//5
f 21//6 7//6 22//6
f 22//5 7//5 21//5
f 17//21 15//10 30//21
f 30//22 15//12 17//22
f 22//6 13//6 29//6
f 29//5 13//5 22//5
f 26//6 17//6 16//6
f 16//5 17//5 26//5
f 8//24 23//23 21//24
f 21//26 23//25 8//26
f 16//23 31//33 23//23
f 23//25 31//34 16//25
f 14//4 27//14 11//4
f 11//2 27//13 14//2
f 14//27 21//24 22//27
f 22//28 21//26 14//28
f 24//29 17//13 32//29
f 32//30 17//14 24//30
f 24//5 25//5 9//5
f 9//6 25//6 24//6
f 26//18 10//8 25//18
f 25//17 10//7 26//17
f 31//33 16//23 26//33
f 26//34 16//25 31//34
f 12//5 27//5 28//5
f 28//6 27//6 12//6
f 28//17 33//35 18//17
f 18//18 33//36 28//18
f 18//19 34//37 19//19
f 19//20 34//38 18//20
f 20//6 18//6 35//6
f 35//5 18//5 20//5
f 29//6 19//6 36//6
f 36//5 19//5 29//5
f 20//14 37//30 27//14
f 27//13 37//29 20//13
f 20//31 22//27 29//31
f 29//32 22//28 20//32
f 23//6 30//6 15//6
f 15//5 30//5 23//5
f 30//21 32//39 17//21
f 17//22 32//40 30//22
f 26//6 32//6 17//6
f 17//5 32//5 26//5
f 31//6 30//6 23//6
f 23//5 30//5 31//5
f 38//41 24//29 32//29
f 32//30 24//30 38//42
f 24//5 39//5 25//5
f 25//6 39//6 24//6
f 25//18 40//36 26//18
f 26//17 40//35 25//17
f 26//33 41//43 31//33
f 31//34 41//44 26//34
f 28//5 27//5 37//5
f 37//6 27//6 28//6
f 33//35 28//17 42//35
f 42//36 28//18 33//36
f 34//37 18//19 33//37
f 33//38 18//20 34//38
f 35//6 18//6 33//6
f 33//5 18//5 35//5
f 36//6 19//6 34//6
f 34//5 19//5 36//5
f 37//30 20//14 35//30
f 35//29 20//13 37//29
f 29//31 35//45 20//31
f 20//32 35//46 29//32
f 35//45 29//31 36//45
f 36//46 29//32 35//46
f 32//39 30//21 43//39
f 43//40 30//22 32//40
f 40//6 32//6 26//6
f 26//5 32//5 40//5
f 31//6 43//6 30//6
f 30//5 43//5 31//5
f 24//29 38//41 44//41
f 44//42 38//42 24//30
f 43//39 38//47 32//39
f 32//40 38//48 43//40
f 40//6 38//6 32//6
f 32//5 38//5 40//5
f 44//5 39//5 24//5
f 24//6 39//6 44//6
f 40//36 25//18 39//36
f 39//35 25//17 40//35
f 41//43 26//33 40//43
f 40//44 26//34 41//44
f 41//6 43//6 31//6
f 31//5 43//5 41//5
f 28//5 37//5 42//5
f 42//6 37//6 28//6
f 45//49 33//35 42//35
f 42//36 33//36 45//50
f 46//51 34//37 33//37
f 33//38 34//38 46//52
f 35//6 33//6 47//6
f 47//5 33//5 35//5
f 36//6 34//6 48//6
f 48//5 34//5 36//5
f 47//42 37//30 35//30
f 35//29 37//29 47//41
f 36//45 47//53 35//45
f 35//46 47//54 36//46
f 49//55 44//41 38//41
f 38//42 44//42 49//56
f 38//47 43//39 50//47
f 50//48 43//40 38//48
f 51//6 38//6 40//6
f 40//5 38//5 51//5
f 44//5 52//5 39//5
f 39//6 52//6 44//6
f 52//50 40//36 39//36
f 39//35 40//35 52//49
f 51//57 41//43 40//43
f 40//44 41//44 51//58
f 41//6 50//6 43//6
f 43//5 50//5 41//5
f 42//5 37//5 53//5
f 53//6 37//6 42//6
f 33//35 45//49 46//49
f 46//50 45//50 33//36
f 42//5 53//5 45//5
f 45//6 53//6 42//6
f 34//37 46//51 54//51
f 54//52 46//52 34//38
f 47//6 33//6 46//6
f 46//5 33//5 47//5
f 48//6 34//6 54//6
f 54//5 34//5 48//5
f 47//53 36//45 48//53
f 48//54 36//46 47//54
f 37//30 47//42 53//42
f 53//41 47//41 37//29
f 44//41 49//55 55//55
f 55//56 49//56 44//42
f 50//47 49//59 38//47
f 38//48 49//60 50//48
f 51//6 49//6 38//6
f 38//5 49//5 51//5
f 40//36 52//50 51//50
f 51//49 52//49 40//35
f 55//5 52//5 44//5
f 44//6 52//6 55//6
f 41//43 51//57 56//57
f 56//58 51//58 41//44
f 56//6 50//6 41//6
f 41//5 50//5 56//5
f 57//61 46//49 45//49
f 45//50 46//50 57//62
f 45//5 53//5 58//5
f 58//6 53//6 45//6
f 59//63 54//51 46//51
f 46//52 54//52 59//64
f 47//6 46//6 60//6
f 60//5 46//5 47//5
f 48//6 54//6 61//6
f 61//5 54//5 48//5
f 48//53 60//65 47//53
f 47//54 60//66 48//54
f 60//56 53//42 47//42
f 47//41 53//41 60//55
f 62//67 55//55 49//55
f 49//56 55//56 62//68
f 49//59 50//47 63//59
f 63//60 50//48 49//60
f 64//6 49//6 51//6
f 51//5 49//5 64//5
f 65//62 51//50 52//50
f 52//49 51//49 65//61
f 55//5 65//5 52//5
f 52//6 65//6 55//6
f 64//69 56//57 51//57
f 51//58 56//58 64//70
f 56//6 63//6 50//6
f 50//5 63//5 56//5
f 46//49 57//61 59//61
f 59//62 57//62 46//50
f 45//5 58//5 57//5
f 57//6 58//6 45//6
f 53//42 60//56 58//56
f 58//55 60//55 53//41
f 54//51 59//63 66//63
f 66//64 59//64 54//52
f 60//6 46//6 59//6
f 59//5 46//5 60//5
f 61//6 54//6 66//6
f 66//5 54//5 61//5
f 60//65 48//53 61//65
f 61//66 48//54 60//66
f 55//55 62//67 67//67
f 67//68 62//68 55//56
f 63//59 62//71 49//59
f 49//60 62//72 63//60
f 49//6 64//6 62//6
f 62//5 64//5 49//5
f 51//50 65//62 64//62
f 64//61 65//61 51//49
f 65//5 55//5 67//5
f 67//6 55//6 65//6
f 56//57 64//69 68//69
f 68//70 64//70 56//58
f 68//6 63//6 56//6
f 56//5 63//5 68//5
f 69//68 59//61 57//61
f 57//62 59//62 69//67
f 57//5 58//5 69//5
f 69//6 58//6 57//6
f 70//68 58//56 60//56
f 60//55 58//55 70//67
f 70//73 66//63 59//63
f 59//64 66//64 70//74
f 60//6 59//6 70//6
f 70//5 59//5 60//5
f 61//6 66//6 71//6
f 71//5 66//5 61//5
f 61//65 70//73 60//65
f 60//66 70//74 61//66
f 64//62 67//67 62//67
f 62//68 67//68 64//61
f 62//71 63//59 72//71
f 72//72 63//60 62//72
f 72//71 64//69 62//71
f 62//72 64//70 72//72
f 67//67 64//62 65//62
f 65//61 64//61 67//68
f 64//69 72//71 68//69
f 68//70 72//72 64//70
f 63//6 68//6 72//6
f 72//5 68//5 63//5
f 59//61 69//68 70//68
f 70//67 69//67 59//62
f 58//56 70//68 69//68
f 69//67 70//67 58//55
f 66//63 70//73 71//73
f 71//74 70//74 66//64
f 70//73 61//65 71//73
f 71//74 61//66 70//74
